<?xml version="1.0" encoding="utf-8"?>
<!-- Generator: Adobe Illustrator 19.2.1, SVG Export Plug-In . SVG Version: 6.00 Build 0)  -->
<svg version="1.1" id="Ebene_1" xmlns="http://www.w3.org/2000/svg" xmlns:xlink="http://www.w3.org/1999/xlink" x="0px" y="0px"
	 viewBox="0 0 64 64" style="enable-background:new 0 0 64 64;" xml:space="preserve">
<style type="text/css">
	.st0{fill:url(#SVGID_1_);}
	.st1{fill:#FFFFFF;}
</style>
<radialGradient id="SVGID_1_" cx="12" cy="62" r="66.2193" gradientUnits="userSpaceOnUse">
	<stop  offset="0.0016" style="stop-color:#FFC02D"/>
	<stop  offset="0.1503" style="stop-color:#FF5E2F"/>
	<stop  offset="0.3712" style="stop-color:#FF3A4B"/>
	<stop  offset="0.5954" style="stop-color:#D72792"/>
	<stop  offset="0.8089" style="stop-color:#CD12BB"/>
	<stop  offset="1" style="stop-color:#475ED1"/>
</radialGradient>
<circle class="st0" cx="32" cy="32" r="32"/>
<path class="st1" d="M32.002,13c-5.16,0-5.808,0.023-7.834,0.115c-2.023,0.093-3.403,0.413-4.611,0.883
	c-1.25,0.485-2.31,1.134-3.366,2.191c-1.057,1.056-1.706,2.116-2.193,3.365c-0.471,1.208-0.792,2.59-0.883,4.611
	C13.024,26.192,13,26.84,13,32s0.023,5.806,0.115,7.832c0.093,2.023,0.413,3.403,0.883,4.611c0.486,1.25,1.135,2.31,2.191,3.366
	c1.056,1.057,2.116,1.708,3.365,2.193c1.209,0.47,2.59,0.79,4.612,0.883C26.193,50.977,26.84,51,31.999,51
	c5.16,0,5.806-0.023,7.833-0.115c2.023-0.093,3.405-0.413,4.614-0.883c1.249-0.485,2.308-1.136,3.363-2.193
	c1.057-1.056,1.706-2.116,2.193-3.365c0.467-1.208,0.788-2.59,0.883-4.611C50.976,37.806,51,37.16,51,32s-0.024-5.808-0.115-7.834
	c-0.095-2.023-0.416-3.403-0.883-4.611c-0.487-1.25-1.136-2.31-2.193-3.366c-1.057-1.057-2.114-1.706-3.365-2.191
	c-1.211-0.47-2.593-0.79-4.615-0.883C37.803,13.023,37.157,13,31.996,13L32.002,13z M30.297,16.424c0.506-0.001,1.07,0,1.704,0
	c5.073,0,5.674,0.018,7.677,0.109c1.852,0.085,2.858,0.394,3.528,0.654c0.887,0.344,1.519,0.756,2.183,1.421
	c0.665,0.665,1.077,1.298,1.422,2.185c0.26,0.669,0.57,1.674,0.654,3.527c0.091,2.003,0.111,2.605,0.111,7.675
	s-0.02,5.672-0.111,7.675c-0.085,1.852-0.394,2.858-0.654,3.527c-0.344,0.887-0.757,1.518-1.422,2.183
	c-0.665,0.665-1.296,1.077-2.183,1.421c-0.669,0.261-1.675,0.57-3.528,0.655c-2.003,0.091-2.605,0.111-7.677,0.111
	c-5.073,0-5.675-0.02-7.677-0.111c-1.852-0.085-2.858-0.395-3.528-0.655c-0.887-0.344-1.52-0.756-2.185-1.421
	s-1.077-1.297-1.422-2.184c-0.26-0.669-0.57-1.674-0.654-3.527c-0.091-2.003-0.109-2.605-0.109-7.678s0.018-5.672,0.109-7.675
	c0.085-1.852,0.394-2.858,0.654-3.528c0.344-0.887,0.757-1.52,1.422-2.185c0.665-0.665,1.298-1.077,2.185-1.422
	c0.67-0.261,1.676-0.57,3.528-0.655c1.753-0.079,2.432-0.103,5.973-0.107V16.424z M42.144,19.579c-1.259,0-2.28,1.02-2.28,2.279
	c0,1.259,1.021,2.28,2.28,2.28c1.259,0,2.28-1.021,2.28-2.28S43.402,19.578,42.144,19.579L42.144,19.579z M32.002,22.243
	c-5.388,0-9.757,4.369-9.757,9.757s4.369,9.755,9.757,9.755s9.756-4.367,9.756-9.755S37.39,22.243,32.002,22.243L32.002,22.243z
	 M32.002,25.667c3.498,0,6.333,2.835,6.333,6.333c0,3.498-2.836,6.333-6.333,6.333c-3.498,0-6.333-2.836-6.333-6.333
	C25.669,28.502,28.504,25.667,32.002,25.667z"/>
</svg>
