<?xml version="1.0" encoding="utf-8"?>
<!-- Generator: Adobe Illustrator 28.0.0, SVG Export Plug-In . SVG Version: 6.00 Build 0)  -->
<svg version="1.1" id="Ebene_1" xmlns="http://www.w3.org/2000/svg" xmlns:xlink="http://www.w3.org/1999/xlink" x="0px" y="0px"
	 viewBox="0 0 300 70" style="enable-background:new 0 0 300 70;" xml:space="preserve">
<path d="M260.0436401,11.2893677c11.939209-1.8161621,23.0097656-3.9106445,32.9573364-6.2649536l-0.6914062-2.9189453
	c-38.5439453,9.1220703-94.0078125,14.3540039-152.1679688,14.3540039c-48.5239258,0-95.4902344-3.6381836-132.2480469-10.2451172
	l-0.5302734,2.953125c8.578064,1.541687,17.7139282,2.9202271,27.2870483,4.1317139l-3.1400146,35.6248779
	c-0.630249,7.1505127,4.6554565,13.4580078,11.8059082,14.0882568l30.817688,2.7163086
	c7.1504517,0.630249,13.4579468-4.6554565,14.0881958-11.8059082l3.1470337-35.7044678
	c8.4802246,0.437561,17.1081543,0.7623901,25.833252,0.9694214v36.0733643c0,7.1782227,5.8190308,12.9972534,12.9971924,12.9972534
	h30.9371948c7.1781616,0,12.9972534-5.8190308,12.9972534-12.9972534V18.8573608
	c9.9606934-0.3535156,19.7541504-0.8590698,29.3007812-1.5127563l3.7910767,34.9206543
	c0.7747192,7.1362305,7.1878052,12.2932739,14.3240356,11.5185547l30.7564697-3.3389893
	c7.1362915-0.7747192,12.2932739-7.1878052,11.5185547-14.3240356L260.0436401,11.2893677z M74.4577637,35.8036499
	c-0.1872559,1.7245483-1.3971558,3.2694702-1.3971558,3.2694702c-0.4443359,0.5652466-1.2508545,1.4078979-1.8130493,1.8594971
	l-10.9867554,8.8291016c-0.5558472,0.4516602-1.3812866,0.3620605-1.8335571-0.1990356l-8.5054932-10.579834
	c-0.4494019-0.560791-1.3476562-1.8876953-1.6671753-2.5311279c0,0-0.8964233-1.8135376-0.7058105-3.569397
	c0.4031982-3.7139893,3.7442627-6.4017334,7.4560547-5.9987793c3.7180786,0.4036255,6.4039917,3.7456665,6.0007935,7.4597168
	c0.4031982-3.7140503,3.7424927-6.4019775,7.4589233-5.9985352C72.1762085,28.7476807,74.8609619,32.0895996,74.4577637,35.8036499z
	 M158.1148682,42.8682251c-0.387146,0.6051636-1.4233398,1.8273315-1.930603,2.3363647l-9.5977173,9.6000366
	c-0.5101929,0.5090332-1.3405151,0.5090332-1.8442993,0l-9.9696655-9.9633179
	c-0.5101929-0.5095825-1.2210693-1.4343872-1.6018066-2.0442505c0,0-1.0361328-1.6665039-1.0361328-3.4011841
	c0-3.7358398,3.0297241-6.7684937,6.7632446-6.7684937c3.7382812,0,6.7680054,3.0326538,6.7680054,6.7684937
	c0-3.7358398,3.0308838-6.7684937,6.770813-6.7684937c3.7335815,0,6.7650146,3.0326538,6.7650146,6.7684937
	C159.2017212,41.1620483,158.1148682,42.8682251,158.1148682,42.8682251z M246.9754639,34.7923584
	c-0.3195801,0.6434937-1.2177734,1.9703369-1.6671753,2.5311279l-8.5054932,10.579834
	c-0.4522705,0.5610962-1.277771,0.6507568-1.8335571,0.1990356l-10.9867554-8.8291016
	c-0.5621948-0.4515381-1.3687134-1.2941895-1.8130493-1.8594971c0,0-1.2099609-1.5448608-1.3971558-3.2694702
	c-0.4031982-3.7139893,2.2814941-7.0559692,5.9932251-7.4589233c3.7163696-0.4034424,7.0557251,2.2845459,7.4589233,5.9985352
	c-0.4031982-3.7139893,2.2827148-7.0560913,6.0007935-7.4597168c3.711731-0.4029541,7.0527954,2.28479,7.4559937,5.9988403
	C247.8718262,32.9788818,246.9754639,34.7923584,246.9754639,34.7923584z"/>
</svg>
