<?xml version="1.0" encoding="utf-8"?>
<!-- Generator: Adobe Illustrator 19.2.1, SVG Export Plug-In . SVG Version: 6.00 Build 0)  -->
<svg version="1.1" id="Ebene_1" xmlns="http://www.w3.org/2000/svg" xmlns:xlink="http://www.w3.org/1999/xlink" x="0px" y="0px"
	 viewBox="0 0 64 64" style="enable-background:new 0 0 64 64;" xml:space="preserve">
<style type="text/css">
	.st0{fill:#1DA1F2;}
	.st1{fill:#FFFFFF;}
</style>
<circle class="st0" cx="32" cy="32" r="32"/>
<g id="layer1" transform="translate(-539.17946,-568.85777)">
	<path id="path3611" class="st1" d="M565.56,616.637c14.654,0,22.667-12.14,22.667-22.667c0-0.345-0.007-0.688-0.022-1.03
		c1.556-1.125,2.908-2.528,3.974-4.125c-1.427,0.635-2.964,1.062-4.575,1.254c1.645-0.986,2.908-2.547,3.503-4.407
		c-1.539,0.913-3.244,1.576-5.059,1.934c-1.454-1.549-3.523-2.517-5.815-2.517c-4.4,0-7.967,3.568-7.967,7.966
		c0,0.625,0.07,1.233,0.207,1.817c-6.622-0.333-12.493-3.503-16.422-8.324c-0.684,1.177-1.079,2.545-1.079,4.004
		c0,2.764,1.406,5.204,3.545,6.632c-1.307-0.04-2.535-0.399-3.608-0.996c-0.001,0.033-0.001,0.066-0.001,0.102
		c0,3.858,2.746,7.08,6.392,7.81c-0.669,0.183-1.374,0.28-2.101,0.28c-0.513,0-1.012-0.05-1.497-0.144
		c1.014,3.166,3.955,5.469,7.442,5.533c-2.727,2.137-6.162,3.41-9.895,3.41c-0.642,0-1.277-0.037-1.9-0.11
		C556.874,615.318,561.061,616.637,565.56,616.637"/>
</g>
</svg>
